<svg width="260" height="148" viewBox="0 0 260 148" fill="none" xmlns="http://www.w3.org/2000/svg">
<path d="M119.995 51.2846C119.843 51.6605 111.521 60.5835 111.595 60.8858C111.668 61.1841 111.994 69.8011 111.994 69.8011C111.254 68.6271 106.763 67.8561 106.201 70.5566C104.198 74.3072 110.37 77.8485 112.908 77.523C112.253 80.1887 117.306 86.4848 119.688 87.5465L118.549 90.6345C116.736 91.0219 116.655 92.4013 114.675 94.0712C113.311 95.2142 115.264 94.6989 112.28 95.9155C109.297 97.1321 100.227 101.169 100.227 101.169C100.227 101.169 98.8279 101.96 98.1266 103.951C96.1971 110.863 93.8995 126.404 92.7333 132.646H166.001C166.001 132.646 162.522 113.909 162.208 112.619C161.894 111.328 160.801 104.253 159.782 102.766C158.767 101.282 157.787 101.537 156.81 100.666C154.338 98.6005 142.533 95.7837 140.979 92.6415C139.89 90.8088 137.55 88.8018 138.383 87.128C138.829 86.6205 143.327 82.866 143.757 81.1845C144.187 79.5029 144.54 77.8601 145.946 77.5502C147.353 77.2363 149.298 76.8062 150.065 75.6749C150.832 74.5396 152.084 73.1874 151.653 71.44C151.223 69.6926 150.987 68.8247 149.542 68.7317C148.097 68.6387 144.734 70.6302 144.734 70.6302L144.54 62.5363L130.545 53.5047L119.991 51.2808L119.995 51.2846Z" fill="white"/>
<path d="M129.172 105.516C129.892 103.296 130.222 98.0463 127.789 97.3218C126.87 98.1742 126.064 99.1234 125.255 100.073C126.766 106.648 125.406 113.513 124.867 120.154C124.6 123.417 124.449 126.687 124.177 129.945C124.104 130.84 124.015 131.747 123.879 132.646H130.718C130.102 123.58 130.404 114.525 129.18 105.52L129.172 105.516Z" fill="#E9C243"/>
<path d="M167.17 130.376C167.131 130.19 167.085 129.954 167.046 129.717C166.821 128.303 166.589 126.889 166.353 125.455C165.814 122.181 165.256 118.795 164.818 115.447C164.338 111.778 163.253 108.241 162.199 104.82L161.901 103.843C161.618 102.917 161.064 102.057 160.297 101.356C160.08 101.158 159.743 100.895 159.32 100.895C159.251 100.895 159.138 100.902 159.006 100.945L158.786 101.015L158.755 100.786C158.696 100.375 158.425 100.004 157.987 99.74C157.561 99.4843 157.096 99.217 156.608 98.9961C153.826 97.7369 150.924 96.6598 148.1 95.6098L148.053 95.5904C147.17 95.2611 146.29 94.9356 145.407 94.6024C145.229 94.5365 145.062 94.4939 144.919 94.4629L144.737 94.4164H144.616C144.477 94.4164 144.345 94.428 144.217 94.459L144.004 94.5094L143.981 94.2924C143.927 93.8236 143.613 93.409 143.446 93.1882L143.419 93.1533C142.675 92.1653 142.059 91.3439 141.463 90.4915C140.986 89.8135 140.498 89.2013 139.812 89.0347C139.719 88.7402 139.595 88.4496 139.506 88.1513C139.397 87.7871 139.324 87.4151 139.223 87.047C138.874 85.7568 136.786 85.997 136.863 87.3647C136.91 88.1513 137.08 89.0153 137.394 89.7708C137.266 89.8406 137.135 89.9142 137.015 89.9917C134.419 91.6771 131.714 93.0526 129.176 94.2886C129.048 94.3505 128.959 94.3777 128.886 94.3777C128.812 94.3777 128.731 94.3505 128.618 94.2924C128.037 93.9863 127.444 93.6957 126.828 93.3935C125.724 92.8511 124.581 92.2893 123.516 91.6384C122.462 90.9991 121.427 90.3753 120.393 89.7863C120.71 89.0308 120.885 88.159 120.931 87.3686C121.009 86.0009 118.92 85.7568 118.572 87.0509C118.471 87.419 118.397 87.7909 118.289 88.1552C118.2 88.4496 118.08 88.7363 117.987 89.0308C117.351 89.1819 116.906 89.6856 116.58 90.135L116.065 90.848C115.526 91.5919 114.988 92.3358 114.438 93.0719L114.333 93.2114C114.166 93.4284 113.853 93.8352 113.798 94.2886L113.771 94.4978L113.566 94.4552C113.446 94.428 113.337 94.4164 113.229 94.4164C113.143 94.4164 113.051 94.4203 112.954 94.4319L112.896 94.4397L112.671 94.5133C112.508 94.5636 112.307 94.6295 112.109 94.7031C111.551 94.9085 110.989 95.1138 110.427 95.3153C109.091 95.7996 107.711 96.2956 106.371 96.8458C105.902 97.0356 105.429 97.2216 104.949 97.4114L104.898 97.4308C103.24 98.0856 101.528 98.7598 99.9274 99.6703C99.2416 100.058 98.9472 100.55 99.044 101.135L99.0595 101.243L98.9278 101.356C98.1606 102.057 97.6066 102.917 97.3237 103.843L97.0215 104.823C95.9715 108.241 94.8867 111.778 94.4062 115.447C93.9684 118.795 93.4105 122.181 92.868 125.479C92.6355 126.893 92.4031 128.303 92.1783 129.721C92.1396 129.958 92.0931 130.194 92.0544 130.388L92.0001 130.674C91.9924 131.693 92.3643 132.282 93.1005 132.422C93.2051 132.441 93.3058 132.453 93.3988 132.453C94.0807 132.453 94.6038 131.972 94.7627 131.201C94.8092 130.977 94.8557 130.752 94.9022 130.527L94.9874 130.124C95.216 129.051 95.4407 127.947 95.5724 126.835C95.8127 124.762 96.1575 122.662 96.4946 120.608C96.8704 118.322 97.2617 115.959 97.5058 113.58C97.7151 111.557 98.304 109.543 98.8736 107.598C99.168 106.59 99.4702 105.552 99.726 104.51C99.8654 103.928 100.23 103.421 100.656 102.863C100.826 102.638 100.935 102.41 100.977 102.193L100.997 102.096L101.179 102.011C103.6 100.775 106.177 99.771 108.665 98.8024L108.707 98.7869C109.439 98.5002 110.172 98.2173 110.9 97.9229C111.76 97.578 112.597 97.1557 113.415 96.745L113.748 96.5745C114.108 96.3924 114.356 96.0902 114.426 95.7376L114.472 95.509L114.689 95.5981C114.844 95.664 115.003 95.695 115.154 95.695C115.193 95.695 115.232 95.6911 115.302 95.6795L115.592 95.6446L115.511 95.9275C115.445 96.1561 115.457 96.4157 115.553 96.6714C115.631 96.8884 115.739 97.1092 115.883 97.3494C117.39 99.8563 119.494 101.72 121.702 103.56C122.101 103.894 122.563 104.072 123.031 104.072C123.527 104.072 123.996 103.874 124.38 103.498L124.612 103.274L124.701 103.584C124.825 104.006 124.965 104.428 125.135 104.87C125.205 105.052 125.306 105.211 125.434 105.35L125.554 105.478L125.437 105.61C125.372 105.687 125.321 105.757 125.275 105.842C125.193 105.986 125.127 106.16 125.077 106.362L125.062 106.424C124.918 107.044 124.775 107.683 124.694 108.334C123.81 115.347 123.206 122.937 122.791 132.224C122.884 132.426 122.973 132.569 123.078 132.681C123.202 132.821 123.372 132.91 123.558 132.953H124.418C124.744 132.879 125.031 132.709 125.341 132.399C125.387 132.352 125.43 132.298 125.472 132.232C125.67 127.311 126.026 122.437 126.441 117.036L126.546 115.668C126.615 114.723 126.689 113.774 126.755 112.824C126.855 111.484 127.01 110.081 127.146 108.845L127.154 108.768L127.169 108.667L127.177 108.597C127.243 107.989 127.313 107.385 127.371 106.761L127.379 106.726C127.406 106.47 127.398 106.249 127.351 106.052C127.34 105.99 127.324 105.939 127.297 105.881C127.266 105.796 127.224 105.722 127.162 105.641L127.061 105.505L127.181 105.385C127.181 105.385 127.22 105.346 127.235 105.327L127.332 105.211L127.468 105.277C127.638 105.358 127.828 105.397 128.049 105.397C128.161 105.397 128.281 105.389 128.417 105.374H128.463C128.518 105.366 128.568 105.358 128.615 105.358H128.642L128.739 105.381H129.176H129.556C129.812 105.381 130.044 105.339 130.238 105.254L130.37 105.199L130.463 105.308C130.49 105.339 130.517 105.366 130.548 105.393L130.68 105.513L130.567 105.653C130.501 105.738 130.455 105.815 130.424 105.901C130.412 105.935 130.397 105.978 130.385 106.028C130.331 106.242 130.327 106.509 130.377 106.807C130.385 106.854 130.397 106.9 130.401 106.947C130.459 107.528 130.525 108.105 130.591 108.69V108.741C130.699 109.694 130.823 110.798 130.912 111.863C131.551 119.574 131.993 126.288 132.26 132.391L132.303 132.449C132.501 132.6 132.679 132.697 132.853 132.763C133.047 132.832 133.256 132.867 133.489 132.867C133.659 132.867 133.841 132.848 134.043 132.809C134.43 132.736 134.717 132.55 134.899 132.267C134.918 132.236 134.938 132.201 134.961 132.154L134.86 129.388L134.593 125.692C134.368 122.557 134.109 119.004 133.841 115.506C133.632 112.789 133.357 109.639 132.737 106.617L132.722 106.544C132.694 106.4 132.636 106.106 132.485 105.835C132.45 105.765 132.396 105.691 132.326 105.61L132.21 105.478L132.33 105.35C132.516 105.149 132.66 104.878 132.756 104.541C132.849 104.211 132.939 103.878 133.024 103.549L133.105 103.223L133.345 103.456C133.764 103.863 134.24 104.068 134.76 104.068C135.232 104.068 135.697 103.886 136.108 103.545C138.138 101.856 140.246 100.004 141.741 97.5935C141.776 97.5354 141.823 97.4734 141.889 97.3843C142.129 97.055 142.427 96.6443 142.342 96.1445C142.33 96.0786 142.311 96.0127 142.288 95.9469L142.183 95.6408L142.513 95.6873C142.555 95.695 142.602 95.6989 142.648 95.6989C142.799 95.6989 142.954 95.6679 143.105 95.6059L143.318 95.5168L143.369 95.7415C143.431 96.0321 143.617 96.2917 143.892 96.466C144.295 96.7256 144.725 96.9969 145.198 97.1906C146.244 97.6245 147.294 98.0469 148.344 98.4692L148.452 98.5157C149.584 98.9729 150.715 99.4301 151.842 99.895C152.176 100.034 152.513 100.17 152.881 100.317L152.92 100.333C154.144 100.829 155.415 101.336 156.577 101.991C156.906 102.177 157.209 102.266 157.495 102.266C157.674 102.266 157.84 102.231 157.999 102.158L158.204 102.065L158.266 102.282C158.321 102.472 158.421 102.665 158.569 102.859C158.995 103.417 159.355 103.928 159.499 104.506C159.75 105.548 160.056 106.586 160.351 107.594C160.92 109.543 161.509 111.557 161.719 113.576C161.963 115.951 162.354 118.318 162.734 120.628C163.067 122.658 163.412 124.758 163.652 126.831C163.78 127.943 164.008 129.047 164.237 130.12L164.249 130.144L164.322 130.523C164.369 130.748 164.419 130.973 164.462 131.197C164.621 131.968 165.144 132.449 165.826 132.449C165.919 132.449 166.019 132.437 166.124 132.418C166.864 132.275 167.232 131.686 167.228 130.671L167.17 130.376ZM124.674 98.8683C124.194 99.4611 123.725 100.058 123.21 100.709L122.849 101.166L122.578 100.926C120.908 99.4688 119.331 98.0934 118.06 96.435C117.828 96.1328 117.549 95.8384 117.177 95.5052C117.003 95.3502 116.793 95.2533 116.572 95.2223L116.22 95.1758L116.588 94.7458C117.398 93.8081 118.041 92.762 118.661 91.7546L118.777 91.5686L118.948 91.7081C121.323 93.6299 123.957 94.9821 126.515 96.2917L127.065 96.5745L126.813 96.7605C126.088 97.2913 125.406 97.9616 124.674 98.8683ZM131.121 100.871C131.114 100.895 131.11 100.918 131.102 100.961C131.094 101.011 131.086 101.057 131.075 101.096C130.893 101.72 130.711 102.359 130.529 102.999L130.463 103.235L130.25 103.115C130.052 103.002 129.812 102.925 129.541 102.882C129.393 102.859 129.238 102.847 129.052 102.847C128.998 102.847 128.731 102.851 128.731 102.851C128.374 102.859 127.886 102.867 127.491 103.088L127.274 103.212L127.208 102.971C127.018 102.282 126.824 101.58 126.623 100.871L126.596 100.775L126.658 100.697C127.243 99.9686 127.944 99.1162 128.715 98.2987L128.742 98.2677L128.897 98.0895L129.041 98.2677C129.083 98.3181 129.126 98.3723 129.176 98.4227C129.913 99.1976 130.591 100.019 131.098 100.651L131.156 100.724L131.125 100.871H131.121ZM141.187 95.2184C140.591 95.2417 140.219 95.7686 139.967 96.129C139.928 96.1871 139.889 96.2413 139.851 96.2917C138.541 97.9926 136.984 99.3874 135.081 101.03L134.926 101.162L134.802 101.003C134.802 101.003 133.822 99.7555 133.438 99.2673C132.598 98.1902 131.807 97.3921 130.959 96.7566L130.711 96.5707C130.711 96.5707 131.594 96.1173 131.908 95.9585C133.446 95.1797 135.039 94.3699 136.526 93.3742C137.212 92.917 137.859 92.4443 138.541 91.9445L139.022 91.5957L139.13 91.774C139.796 92.8627 140.463 93.9243 141.319 94.893L141.586 95.1991L141.18 95.2146L141.187 95.2184Z" fill="#274B66"/>
<path d="M157.301 106.505C157.29 106.242 157.263 105.626 156.515 105.328L156.205 105.204L155.934 105.393C155.275 105.866 155.198 106.533 155.139 107.071C155.132 107.164 155.12 107.265 155.108 107.358C154.372 112.255 153.977 117.203 153.593 121.984L153.555 122.453C153.334 125.165 153.105 127.97 152.819 130.721C152.803 130.853 152.791 130.996 152.791 131.148C152.784 131.705 152.923 132.128 153.218 132.438C153.574 132.814 154.109 132.988 154.907 132.992H155.446L155.608 131.128C156.333 122.771 156.902 115.196 157.344 107.978C157.375 107.528 157.344 107.091 157.313 106.703L157.301 106.505Z" fill="#274B66"/>
<path d="M105.654 122.457L105.616 121.988C105.236 117.207 104.841 112.263 104.101 107.358L104.066 107.079C104.008 106.54 103.938 105.874 103.275 105.397L103.004 105.204L102.69 105.328C101.943 105.622 101.915 106.242 101.908 106.509L101.896 106.707C101.869 107.094 101.834 107.532 101.861 107.982C102.311 115.25 102.88 122.821 103.601 131.132L103.764 133H104.302C105.1 132.992 105.635 132.817 105.992 132.442C106.286 132.132 106.425 131.709 106.418 131.151C106.418 131.004 106.406 130.861 106.391 130.729C106.1 127.978 105.871 125.173 105.654 122.461V122.457Z" fill="#274B66"/>
<path d="M152.678 70.7121C152.33 69.0964 151.311 68.0425 149.738 67.6628C149.583 67.6241 149.428 67.6047 149.277 67.5892C149.292 67.4962 149.308 67.4071 149.319 67.3141L149.404 66.7678C149.916 63.4163 150.443 59.9486 149.703 56.4848C149.625 56.1128 149.528 55.7409 149.42 55.3767C147.967 50.456 144.437 46.5195 138.924 43.6717C135.704 42.0095 132.593 41.1997 129.412 41.1997C129.113 41.1997 128.811 41.2075 128.509 41.223C126.262 41.3353 124.015 41.9359 121.636 43.0595C120.814 43.4469 120.167 44.0359 119.543 44.6016C119.423 44.71 119.307 44.8185 119.187 44.9231C119.082 45.0161 119.063 45.02 119.047 45.02C113.468 45.4811 110.074 50.3824 108.861 54.439C107.66 58.4647 107.393 63.118 108.144 66.8492C108.175 67.1088 108.214 67.3684 108.261 67.6163V67.6396C106.982 67.7868 105.866 68.6005 105.409 69.7706C104.607 71.828 104.797 73.6684 105.971 75.2453C107.707 77.5739 109.582 78.7246 111.876 78.8641L112.12 78.8796L112.209 79.1082C112.496 79.8289 112.844 80.6735 113.247 81.4988C114.995 85.0595 117.408 87.4927 120.628 88.9379C120.946 89.0813 121.237 89.3176 121.543 89.5656C121.841 89.8097 122.151 90.0615 122.527 90.2553C123.937 90.9837 126.084 91.9523 128.435 91.9523C128.645 91.9523 128.858 91.9446 129.071 91.9291L129.509 91.8981C130.361 91.84 131.241 91.7818 132.12 91.5494C132.635 91.4138 133.147 91.2433 133.639 91.0418C134.615 90.6388 135.565 90.1003 136.46 89.4377C136.901 89.1084 137.296 88.8604 137.703 88.6628C140.009 87.5353 141.907 85.8305 143.349 83.5949C144.333 82.0684 145.061 80.6038 145.584 79.1276L145.673 78.8796L145.937 78.868C147.58 78.7983 149.056 78.1047 150.578 76.6866C152.512 74.885 153.182 72.9864 152.69 70.7121H152.678ZM114.158 63.4977C114.189 63.087 114.309 62.808 114.568 62.5407C116.765 60.2586 119.009 57.7053 120.52 54.5243C120.682 54.1755 120.853 53.8307 121.035 53.4704C124.491 56.1787 128.401 59.1582 133.162 60.4872L134.6 60.8862L134.1 59.4798C133.802 58.6351 133.341 57.9455 132.895 57.2752C132.794 57.1241 132.697 56.9768 132.601 56.8257C132.639 56.8606 132.674 56.8955 132.713 56.9265C134.065 58.1469 135.464 59.4101 137.095 60.3942C137.479 60.6267 137.858 60.8669 138.238 61.1071C139.443 61.8704 140.691 62.6569 142.097 63.2032C142.357 63.304 142.62 63.4551 142.899 63.6178C143.046 63.703 143.194 63.7883 143.356 63.8735C143.356 63.9045 143.356 63.9355 143.36 63.9704C143.488 65.5434 143.496 67.1514 143.48 68.7322H141.38C141.33 68.7322 141.28 68.7322 141.237 68.7399C141.221 68.7399 141.202 68.7438 141.187 68.7477C141.125 68.7361 141.066 68.7322 141.004 68.7322H140.939C140.632 68.7322 140.342 68.8678 140.148 69.1042C139.951 69.3444 139.869 69.6543 139.927 69.9643C139.939 70.0302 139.947 70.0999 139.947 70.1658V70.8399C139.947 71.5994 139.152 72.2193 138.176 72.2193H134.848C133.871 72.2193 133.077 71.5994 133.077 70.8399V70.1658C133.077 70.0999 133.085 70.0302 133.096 69.9643C133.155 69.6582 133.077 69.3444 132.88 69.108C132.686 68.8717 132.395 68.7361 132.089 68.7361H132.019C131.593 68.7361 131.21 69.0034 131.062 69.3831C130.256 69.0887 129.447 68.9414 128.641 68.9414C127.924 68.9414 127.196 69.0615 126.479 69.294C126.308 68.9569 125.96 68.7361 125.561 68.7361H125.495C125.189 68.7361 124.898 68.8717 124.704 69.108C124.507 69.3482 124.425 69.6582 124.487 69.9643C124.499 70.0302 124.507 70.0999 124.507 70.1658V70.8399C124.507 71.5994 123.712 72.2193 122.736 72.2193H119.408C118.431 72.2193 117.637 71.5994 117.637 70.8399V70.1658C117.637 70.0999 117.645 70.0302 117.656 69.9643C117.715 69.6582 117.637 69.3444 117.439 69.108C117.246 68.8717 116.955 68.7361 116.649 68.7361H116.579C116.548 68.7361 116.521 68.7361 116.49 68.7399C116.459 68.7399 116.424 68.7361 116.393 68.7361H114.022C114.011 67.0274 114.03 65.2529 114.169 63.5016L114.158 63.4977ZM149.792 74.2069C148.661 75.6095 147.266 76.3999 145.53 76.613C144.945 76.6866 143.914 76.9617 143.577 77.9846C143.066 79.5577 142.287 81.1114 141.194 82.7425C140.338 84.0173 139.18 85.1021 137.645 86.0553C137.378 86.2219 137.083 86.3691 136.797 86.5163C136.336 86.7488 135.855 86.9929 135.413 87.3377C133.48 88.8643 131.349 89.6353 129.086 89.6353C127.765 89.6353 126.351 89.3719 124.894 88.8527C124.03 88.5466 123.251 88.0042 122.496 87.4772C121.864 87.0394 121.209 86.5822 120.481 86.2412C120.078 86.0514 119.652 85.7841 119.137 85.3966C117.037 83.808 115.522 81.5802 114.367 78.3914C113.991 77.3531 113.282 76.768 112.193 76.6053C110.531 76.3534 109.206 75.6289 108.144 74.389C107.261 73.3584 107.013 72.2619 107.37 70.9368C107.536 70.313 108.051 69.8946 108.652 69.8946C108.776 69.8946 108.904 69.9178 109.024 69.9527C109.125 70.0573 109.229 70.1503 109.318 70.2316L109.454 70.3518L111.345 72.1108C111.57 72.32 111.845 72.4556 112.135 72.5021C112.255 72.537 112.375 72.5525 112.499 72.5525C113.108 72.5525 113.619 72.1534 113.836 71.5141C113.918 71.27 113.964 71.0337 113.987 70.7973H115.487V70.8283C115.487 72.6532 117.238 74.1411 119.392 74.1411H122.72C124.712 74.1411 126.386 72.8431 126.599 71.1925C126.669 71.1693 126.731 71.1422 126.781 71.1228C127.347 70.8864 127.959 70.7702 128.687 70.7702C129.307 70.7702 129.915 70.8981 130.601 71.1654C130.725 71.2119 130.849 71.2468 130.969 71.2661C131.221 72.8818 132.876 74.1449 134.84 74.1449H138.168C140.323 74.1449 142.074 72.6571 142.074 70.8322V70.8012H143.5C143.523 71.0182 143.562 71.2351 143.627 71.4599C143.852 72.2232 144.391 72.4479 144.689 72.5137C144.798 72.537 144.906 72.5486 145.011 72.5486C145.065 72.5486 145.115 72.5486 145.17 72.5409C145.511 72.537 145.828 72.413 146.096 72.1844C146.781 71.8047 147.394 71.4289 147.971 71.0298C148.203 70.8671 148.385 70.6966 148.529 70.5067C148.552 70.4447 148.579 70.3866 148.606 70.3363C148.684 70.2006 148.773 70.0689 148.847 69.9333C148.932 69.9178 149.017 69.9062 149.106 69.9062C149.687 69.9062 150.187 70.2588 150.354 70.7818C150.776 72.1185 150.598 73.2073 149.788 74.2108L149.792 74.2069Z" fill="#274B66"/>
<path d="M136.428 68.1592C135.773 68.1592 135.192 68.4381 134.855 68.9186L134.824 68.9612L134.588 69.6354L134.611 69.7749C134.785 70.8055 135.475 71.4448 136.412 71.4448C136.866 71.4448 137.346 71.2859 137.792 70.9837L137.881 70.9024L137.924 70.8287C138.416 69.9802 138.268 69.368 138.055 69.0038C137.753 68.4885 137.129 68.1669 136.42 68.1669L136.428 68.1592Z" fill="#274B66"/>
<path d="M122.913 68.9457L122.882 68.9031C122.557 68.4381 121.976 68.1592 121.321 68.1592C120.612 68.1592 119.988 68.4808 119.686 69C119.473 69.3642 119.326 69.9763 119.837 70.852L119.911 70.9488L119.984 70.9992C120.399 71.2859 120.879 71.4409 121.333 71.4409C122.27 71.4409 122.96 70.8016 123.134 69.771L123.157 69.6315L122.941 69.0116L122.91 68.9418L122.913 68.9457Z" fill="#274B66"/>
<path d="M132.911 79.7597C132.643 79.7597 132.407 79.8682 132.213 79.9728L131.869 80.1627C131.272 80.4959 130.656 80.8369 130.013 81.05C129.645 81.1701 129.257 81.2398 128.893 81.2476C128.513 81.2398 128.13 81.1701 127.754 81.05C127.111 80.8407 126.495 80.4998 125.898 80.1666L125.549 79.9728C125.367 79.8721 125.123 79.7597 124.852 79.7597C124.619 79.7597 124.398 79.845 124.209 80.0077C124.034 80.1588 123.933 80.3564 123.93 80.5656C123.922 80.9376 124.185 81.1894 124.329 81.325C125.235 82.1891 126.359 82.7664 127.665 83.0453C127.8 83.0725 127.936 83.0996 128.071 83.119L128.401 83.1693V83.1964L129.342 83.1848H129.366V83.1693L129.695 83.119C129.834 83.0996 129.97 83.0725 130.106 83.0453C131.411 82.7664 132.531 82.1852 133.442 81.3212C133.585 81.1856 133.848 80.9337 133.837 80.5618C133.833 80.3525 133.732 80.1549 133.558 80.0038C133.368 79.8411 133.147 79.7559 132.915 79.7559L132.911 79.7597Z" fill="#274B66"/>
<path d="M119.354 66.1285C119.512 66.1285 119.679 66.0859 119.83 66.0046C120.342 65.7295 120.869 65.5977 121.446 65.5977C121.837 65.5977 122.244 65.6597 122.69 65.7837C122.814 65.8186 122.93 65.8341 123.042 65.8341C123.41 65.8341 123.689 65.6481 123.836 65.311C124.038 64.8422 123.86 64.4044 123.344 64.1099C122.825 63.8154 122.275 63.7573 121.496 63.7573H121.295C120.5 63.7806 119.667 63.8774 118.935 64.4431C118.462 64.8073 118.346 65.2529 118.61 65.6946C118.776 65.9774 119.04 66.1285 119.35 66.1285H119.354Z" fill="#274B66"/>
<path d="M134.704 65.8263C134.836 65.8263 134.976 65.807 135.131 65.7643C135.561 65.6481 135.948 65.59 136.32 65.59C136.862 65.59 137.358 65.714 137.827 65.9619C138.025 66.0666 138.219 66.1208 138.401 66.1208C138.699 66.1208 138.959 65.9697 139.129 65.7023C139.331 65.3808 139.427 64.8887 138.745 64.3928C137.994 63.8464 137.138 63.7806 136.25 63.7573C136.184 63.7573 136.122 63.7573 136.057 63.7573C135.615 63.7573 135.038 63.7922 134.499 64.0634C133.701 64.4625 133.786 65.0127 133.906 65.3033C134.05 65.6481 134.325 65.8302 134.704 65.8302V65.8263Z" fill="#274B66"/>
<path d="M114.399 20.2037C114.244 19.9402 113.973 19.7658 113.671 19.7348C113.636 19.7348 113.601 19.731 113.566 19.731C113.396 19.731 113.229 19.7775 113.082 19.8627C112.861 19.9944 112.702 20.1998 112.637 20.4516C112.571 20.6996 112.606 20.9592 112.737 21.1839L119.119 32.0714C119.274 32.3348 119.545 32.5092 119.847 32.5441C119.882 32.5441 119.913 32.5479 119.948 32.5479C120.118 32.5479 120.289 32.5014 120.436 32.4162C120.657 32.2845 120.816 32.0791 120.882 31.8273C120.947 31.5793 120.913 31.3197 120.781 31.0989L114.399 20.2075V20.2037Z" fill="#66B1C5"/>
<path d="M126.96 15.864C126.913 15.4146 126.553 15.0504 126.104 15.0039C126.069 15.0039 126.038 15 126.003 15C125.968 15 125.937 15 125.902 15.0039C125.375 15.0581 124.988 15.5308 125.042 16.0616L126.123 26.6043C126.169 27.0537 126.53 27.4179 126.979 27.4644C127.014 27.4644 127.045 27.4683 127.08 27.4683C127.111 27.4683 127.142 27.4683 127.177 27.4644C127.704 27.4102 128.091 26.9375 128.037 26.4067L126.956 15.864H126.96Z" fill="#66B1C5"/>
<path d="M144.75 21.9118C144.66 21.6716 144.486 21.4779 144.25 21.3694C144.153 21.3229 144.052 21.2958 143.944 21.2841C143.909 21.2841 143.874 21.2803 143.843 21.2803C143.471 21.2803 143.13 21.4972 142.971 21.8343L138.097 32.2568C137.989 32.4893 137.977 32.7528 138.062 32.993C138.151 33.2332 138.326 33.427 138.558 33.5354C138.655 33.5819 138.756 33.6091 138.864 33.6207C138.899 33.6207 138.934 33.6246 138.965 33.6246C139.337 33.6246 139.678 33.4076 139.837 33.0705L144.711 22.648C144.819 22.4155 144.831 22.152 144.742 21.9118H144.75Z" fill="#66B1C5"/>
</svg>
