<svg width="137" height="153" viewBox="0 0 137 153" fill="none" xmlns="http://www.w3.org/2000/svg">
<g clip-path="url(#clip0_1_2174)">
<path d="M133.636 88.0327C123.351 81.8678 115.572 96.9464 105.365 96.9022C105.741 93.2062 107.954 88.8132 106.142 85.338C103.978 83.679 102.636 86.7369 102.46 88.5432C101.898 93.7265 96.541 96.0629 94.9832 100.721C94.1334 100.132 93.3863 99.4497 92.8344 98.6251C86.2467 97.3391 89.0156 90.0599 89.0693 85.3282C90.9299 72.316 84.3324 70.1563 87.9705 65.4197C94.5485 64.3447 96.5898 58.2436 94.2311 52.7118C100.921 26.9476 84.7963 -1.9384 55.1587 1.92943C29.9944 -1.41811 21.673 26.4126 21.5655 47.3666C16.9458 48.7164 18.7283 55.6569 21.6193 58.0522C22.8255 58.921 24.144 59.6376 24.4077 61.2377C25.2379 64.2858 29.3937 61.6844 29.8039 64.7865C31.2592 68.993 35.0585 76.0807 38.0276 77.7054C39.6098 78.6282 40.4156 79.8848 40.4156 79.8848C40.4156 79.8848 39.0922 86.7565 39.1313 86.6437C39.1703 86.5308 37.4416 86.2755 37.1828 86.3491C36.924 86.4228 34.3162 90.7176 34.3162 90.7176C-0.678526 106.508 5.05952 119.196 1.67041 152.073H111.953C110.928 147.582 110.039 133.858 108.09 122.161C109.482 121.022 108.955 118.578 108.564 117.022C116.583 113.37 122.506 106.832 128.591 100.677C130.749 98.4582 134.866 96.593 134.173 92.9411C134.778 91.2428 135.369 89.3433 133.631 88.0327H133.636Z" fill="white"/>
<path d="M117.153 148.489C115.487 139.634 113.876 130.716 111.966 121.92C110.653 122.003 109.339 122.033 108.021 121.974C105.344 122.224 102.248 122.509 99.6357 121.915C97.7653 122.813 93.3605 122.568 93.5802 119.741C93.8927 114.312 92.2324 108.981 93.6779 103.572C88.3354 100.186 75.4578 92.5235 75.4578 92.5235L73.1918 88.8078C73.1918 88.8078 73.1674 88.8422 73.1235 88.8864C72.6693 88.2876 71.6536 88.5183 71.4924 89.2496C45.8299 100.922 37.1032 81.2293 35.941 89.3183L33.9632 92.7886C29.1383 95.5127 18.5022 100.092 12.7984 103.445C1.98642 107.72 2.48941 144.293 1.27344 152.072H117.734C117.499 150.894 117.328 149.702 117.153 148.484V148.489Z" fill="#ECF6F9"/>
<path d="M77.6751 86.2217C77.1428 84.9897 76.63 83.9196 75.0966 84.8326C74.1688 83.2472 74.2322 81.4654 73.7732 79.6689C73.1579 80.0174 72.5572 80.3954 71.9712 80.7881C71.7563 82.8594 72.4498 84.7884 72.9723 86.6929C62.0578 93.4272 49.9615 92.8971 40.2289 86.634C40.9418 84.2043 41.3032 82.4766 41.3032 81.1856C40.6146 80.7635 39.9554 80.2874 39.3303 79.7475C38.9592 81.4065 38.9592 83.1834 38.085 84.9062C37.25 84.4497 36.4442 84.273 35.9265 85.3136C35.2526 86.6782 34.5299 88.0181 33.8657 89.3876C33.5044 90.1288 33.2553 90.9779 34.149 91.4835C35.0719 92.0038 35.741 91.4344 36.2879 90.6785C36.8739 89.8637 36.9276 88.7446 37.7188 88.0182C43.5545 91.8418 49.7223 94.2567 56.7398 94.2371C63.7182 94.2175 69.8371 91.6749 75.5947 87.974C76.1075 89.0244 76.4884 89.9226 76.9718 90.757C77.4065 91.508 78.1195 91.9449 78.9692 91.5228C79.9019 91.0614 79.7261 90.2171 79.3598 89.4661C78.8276 88.3716 78.1634 87.3359 77.68 86.2217H77.6751Z" fill="#274B66"/>
<path d="M10.133 105.28C9.09772 104.628 8.43846 105.457 7.9257 106.252C7.09551 107.548 6.67554 109.025 6.25068 110.488C2.43671 123.618 1.53816 137.205 -0.000127043 150.875C-0.0489614 151.959 0.375898 152.735 1.25003 152.799C2.43183 152.887 2.81762 152.092 2.969 151.095C3.07156 150.433 3.20829 149.775 3.26689 149.108C4.10685 139.88 5.01028 130.667 6.5974 121.527C7.43247 116.722 8.12592 111.892 10.0988 107.376C10.4114 106.655 11.0462 105.86 10.1281 105.28H10.133Z" fill="#274B66"/>
<path d="M73.0181 93.727C72.6909 93.8841 72.3588 94.0461 72.056 94.2424C66.2057 97.9924 59.7595 98.9741 52.996 98.2329C48.7376 97.7666 44.6209 96.7506 41.0266 94.2031C40.4358 93.7859 39.6056 93.0251 38.9561 93.9135C38.3945 94.6793 39.2833 95.2143 39.7667 95.71C41.0657 97.0353 42.6186 97.9777 44.3572 98.6207C48.3274 100.088 52.3758 101.099 56.5413 100.707C61.3222 101.07 65.7027 99.9362 69.9513 98.1348C71.5481 97.4574 72.8569 96.3678 74.0094 95.0867C74.3317 94.7283 74.6491 94.2817 74.1999 93.7957C73.8482 93.4178 73.4234 93.5356 73.0181 93.7319V93.727Z" fill="#274B66"/>
<path d="M31.4046 90.7858C30.8821 90.8595 30.3596 91.0852 29.8908 91.3503C23.7523 94.8107 17.9947 98.8847 11.9734 102.532C11.1677 103.018 10.6598 103.744 11.2019 104.667C11.7634 105.624 12.6718 105.408 13.4434 104.956C15.1184 103.975 16.7739 102.959 18.4 101.894C22.4631 99.2332 26.5114 96.5483 30.5452 93.8487C31.3412 93.3186 32.1567 92.7541 32.4643 91.7773C32.4399 91.0411 32.02 90.7024 31.4046 90.7858Z" fill="#274B66"/>
<path d="M18.3327 124.949C18.3669 121.641 18.616 117.719 18.3523 113.797C18.2985 113.036 18.1911 112.089 17.1705 112.109C16.2133 112.123 16.2475 113.022 16.1938 113.733C16.0277 115.869 15.8715 117.999 15.7103 120.134C15.0852 128.262 14.7434 136.391 15.6517 144.514C15.9154 146.87 16.4672 149.192 16.9068 151.528C17.0826 152.446 17.5953 153.118 18.6013 152.966C19.5878 152.819 19.9052 152.039 19.8612 151.111C19.8417 150.699 19.8222 150.276 19.7391 149.869C18.113 141.834 17.7565 133.73 18.3327 124.954V124.949Z" fill="#274B66"/>
<path d="M52.5172 104.068C52.0191 105.324 51.7212 106.689 51.394 108C51.0619 109.32 50.7738 110.65 50.5198 111.99C50.2708 113.291 50.0608 114.596 49.8752 115.907C49.6848 117.281 49.3722 118.754 49.4455 120.143C49.5041 121.282 51.2524 121.645 51.5161 120.423C51.7944 119.122 51.7993 117.743 51.9507 116.422C52.107 115.087 52.3023 113.752 52.5318 112.427C52.7565 111.121 53.0153 109.821 53.2985 108.525C53.5915 107.195 53.9968 105.884 54.2459 104.544C54.4608 103.395 52.9469 102.998 52.5221 104.068H52.5172Z" fill="#274B66"/>
<path d="M62.2697 113.066C62.0694 112.114 61.8448 111.167 61.5909 110.224C61.0732 108.295 60.4237 106.43 59.5984 104.614C59.2322 103.804 57.9429 104.378 58.1822 105.213C58.7145 107.048 59.2273 108.899 59.6424 110.764C59.8475 111.682 60.0282 112.61 60.1844 113.537C60.2626 114.004 60.3358 114.47 60.3993 114.936C60.4774 115.52 60.4726 116.006 60.9121 116.453C61.3565 116.905 62.1769 116.816 62.4894 116.247C62.8215 115.638 62.6506 115.088 62.5383 114.445C62.4552 113.984 62.3673 113.523 62.2697 113.061V113.066Z" fill="#274B66"/>
<path d="M135.447 86.5309C133.601 85.348 131.692 84.1209 129.201 84.4448C125.529 84.9259 122.301 86.2413 119.444 88.4256C116.192 90.9043 112.641 92.848 108.676 94.085C108.359 94.1831 108.046 94.4384 107.572 94.1537C107.968 92.2198 108.305 90.2466 108.325 88.2194C108.339 86.4573 107.734 84.9111 106.532 83.5859C105.018 81.917 103.216 82.2262 102.518 84.2927C102 85.8241 101.512 87.3653 100.853 88.8428C99.9153 90.9583 98.8751 92.9707 97.4442 94.8114C97.2001 95.1255 96.9461 95.4397 96.6775 95.7391C96.6336 95.7882 96.5994 95.8323 96.5603 95.8814C96.5262 95.9256 96.492 95.96 96.4627 95.9992C96.2478 96.2496 96.0427 96.4999 95.8474 96.76C95.4323 97.3049 95.066 97.8693 94.7242 98.4436C90.959 96.014 87.2086 93.5647 83.3067 91.3608C82.8379 91.0957 82.33 90.9043 81.9198 90.7178C81.3631 90.8012 80.9333 90.8798 80.7722 91.3608C80.5964 91.8958 80.8747 92.3081 81.2312 92.6615C82.75 94.1782 84.6057 95.2433 86.3784 96.4066C88.7224 97.9479 91.086 99.4597 93.4496 100.971C92.9173 102.272 92.5217 103.632 92.2385 105.016C92.009 106.115 91.7941 107.225 91.6769 108.344C91.5548 109.497 91.6623 110.543 91.7892 111.691C91.9553 113.198 92.092 114.71 92.1945 116.222C92.2483 116.978 92.302 117.734 92.3264 118.494C92.3459 119.108 92.5852 119.756 92.5852 120.345C92.5852 120.355 92.595 120.365 92.5999 120.379C92.4192 120.369 92.2385 120.365 92.0627 120.374C91.5499 120.404 91.2227 120.767 91.1446 121.174C91.0811 121.214 91.0225 121.258 90.9737 121.312C90.7832 121.523 90.7149 121.744 90.6807 122.024C90.5977 122.672 90.6465 123.354 90.6807 124.002C90.7149 124.659 90.7881 125.312 90.8223 125.97C90.8516 126.52 91.2227 127.05 91.7599 127.187C91.7111 127.217 91.6623 127.256 91.6134 127.305C91.6134 127.305 91.6134 127.305 91.6183 127.305C91.6622 127.325 91.7111 127.339 91.7599 127.354C91.799 127.354 91.9553 127.339 91.9943 127.335C91.9992 127.335 92.0041 127.335 92.0139 127.33C92.0725 127.31 92.1262 127.29 92.1848 127.271C92.2922 127.231 92.3948 127.182 92.4973 127.133C92.5071 127.128 92.5217 127.128 92.5315 127.123C92.6878 127.065 92.8392 126.981 92.9515 126.853C93.1908 126.593 93.2738 126.318 93.3177 125.965C93.3519 125.7 93.3031 125.44 93.2005 125.194C93.1859 125.165 93.1712 125.136 93.1566 125.106C93.0443 124.551 92.971 123.982 92.8929 123.423C92.9075 123.526 92.9222 123.624 92.9319 123.727C92.888 123.403 92.844 123.084 92.8001 122.76C93.9672 123.177 95.3053 123.339 96.4529 123.496C98.1279 123.727 99.8127 123.845 101.507 123.791C104.75 123.692 107.963 123.099 111.025 122.029C111.035 122.215 111.045 122.402 111.059 122.588C111.084 122.961 111.118 123.329 111.162 123.702C111.181 123.879 111.201 124.061 111.225 124.237C111.25 124.424 111.259 124.615 111.313 124.797C111.406 125.145 111.636 125.376 111.924 125.572C112.163 125.729 112.568 125.779 112.837 125.69C113.144 125.592 113.364 125.41 113.545 125.14C113.926 124.586 113.652 123.899 113.525 123.3C113.442 122.912 113.369 122.519 113.296 122.127C113.228 121.749 113.174 121.371 113.096 120.993C113.047 120.747 113.003 120.497 112.886 120.276C112.749 120.021 112.544 119.859 112.309 119.79C112.046 119.324 111.509 118.98 110.976 119.01C110.952 118.745 110.903 118.475 110.869 118.239C110.83 117.959 110.776 117.685 110.713 117.41C110.678 117.258 110.639 117.1 110.595 116.953C110.717 116.865 110.84 116.767 110.966 116.683C110.962 116.669 110.957 116.654 110.952 116.639C111.015 116.6 111.079 116.561 111.142 116.526C111.201 116.497 111.255 116.467 111.313 116.438C111.494 116.34 111.694 116.261 111.87 116.153C111.958 116.099 112.036 116.026 112.114 115.952C113.887 114.887 115.63 113.768 117.334 112.585C117.378 112.55 117.413 112.521 117.452 112.487C118.848 111.583 120.23 110.656 121.588 109.704C125.329 107.063 128.835 104.069 131.643 100.476C132.605 99.2535 133.909 98.3994 134.934 97.2656C136.141 95.9305 136.854 94.4384 136.424 92.5781C136.336 92.2001 136.424 91.9204 136.58 91.5915C137.391 89.8637 137.078 87.5764 135.457 86.5456L135.447 86.5309ZM133.303 94.782C133.206 94.9292 133.103 95.0715 132.981 95.1992C129.89 98.4583 126.857 101.86 123.39 104.707C119.986 107.495 116.382 110.023 112.69 112.408C111.518 113.164 110.327 113.89 109.145 114.627C108.94 114.754 108.72 114.887 108.51 115.014C108.022 115.564 107.685 116.202 107.978 116.737C107.978 116.826 107.968 116.914 107.978 116.997C107.992 117.267 108.017 117.537 108.036 117.807C108.056 118.077 108.071 118.352 108.085 118.622C108.095 118.764 108.1 118.907 108.105 119.044C108.105 119.103 108.105 119.167 108.105 119.226C108.115 119.481 108.159 119.658 108.237 119.859C106.044 120.482 103.788 120.87 101.512 120.988C99.9446 121.071 98.3672 121.057 96.8045 120.919C96.2429 120.87 95.6862 120.801 95.1295 120.728C95.1393 120.708 95.1539 120.693 95.1637 120.679C95.8474 119.442 95.6764 117.979 95.5495 116.634C95.403 115.073 95.1588 113.522 94.8218 111.991C93.8061 107.392 95.5446 102.022 98.2256 98.262C98.25 98.2227 98.2744 98.1884 98.3037 98.154C99.0118 97.1773 99.8127 96.2496 100.741 95.3611C102.015 94.134 102.308 92.2541 103.089 90.6982C103.783 89.3091 104.31 87.8415 104.96 86.2953C105.561 86.9432 105.541 87.6009 105.536 88.2341C105.517 90.4036 105.111 92.4995 104.462 94.5611C103.783 96.7011 104.393 97.4963 106.693 97.3638C108.74 97.2411 110.644 96.4999 112.461 95.6998C115.674 94.2911 118.717 92.5879 121.5 90.4282C123.815 88.6415 126.452 87.3997 129.831 87.2966C128.161 88.3225 126.701 89.1962 125.255 90.1042C122.076 92.0774 118.56 93.5745 115.816 96.1759C115.474 96.4999 115.176 96.3477 114.829 96.279C114.253 96.1465 113.745 96.2594 113.403 96.7502C113.027 97.2951 113.154 97.8399 113.516 98.3602C114.107 99.1995 114.707 100.039 115.406 101.016C113.359 101.929 111.543 103.018 109.799 104.211C108.793 104.898 107.978 105.747 107.46 106.832C107.128 107.524 107.157 108.251 107.9 108.717C108.642 109.178 109.35 108.957 109.775 108.285C111.006 106.331 113.037 105.369 114.981 104.334C116.851 103.342 118.741 102.375 120.826 101.767C122.828 101.178 123.922 99.3664 125.353 98.0215C127.311 96.1808 129.616 94.782 131.77 93.1916C132.249 92.8333 132.742 92.6664 133.313 93.2603C133.87 93.8444 133.635 94.296 133.323 94.7967L133.303 94.782ZM130.486 90.708C127.985 92.3523 125.495 94.0064 123.326 96.068C121.681 97.6337 120.377 99.7002 117.549 99.7198C117.393 99.3271 117.222 98.8903 117.09 98.5516C119.532 96.4066 122.355 94.9881 125.055 93.4125C127.263 92.1314 129.314 90.5754 131.746 89.6576C132.317 89.4416 132.874 89.0882 133.826 89.5692C132.517 89.903 131.404 90.1091 130.486 90.7129V90.708Z" fill="#274B66"/>
<path d="M107.962 127.521C107.034 127.119 105.921 127.472 104.939 127.575C103.948 127.678 102.957 127.742 101.961 127.747C100.964 127.752 99.973 127.703 98.9816 127.619C98.0147 127.536 97.0038 127.285 96.0418 127.447C95.3435 127.565 95.3532 128.537 95.8562 128.861C96.7157 129.421 97.9268 129.509 98.923 129.646C99.929 129.784 100.945 129.867 101.961 129.897C102.952 129.926 103.948 129.906 104.939 129.833C105.941 129.759 107.401 129.779 108.158 129.048C108.568 128.655 108.539 127.766 107.962 127.516V127.521Z" fill="#274B66"/>
<path d="M118.272 144.538C117.827 142.295 117.383 140.047 116.924 137.809C116.465 135.571 116.04 133.318 115.503 131.099C115.073 129.308 114.8 127.114 112.88 126.348C112.026 126.004 111.318 127.305 111.987 127.894C112.534 128.375 112.627 129.038 112.749 129.725C112.924 130.731 113.037 131.747 113.213 132.748C113.584 134.884 113.974 137.019 114.37 139.154C114.756 141.245 115.156 143.336 115.552 145.422C115.752 146.467 115.952 147.513 116.152 148.554C116.353 149.599 116.431 150.807 116.817 151.793C117.07 152.446 117.617 152.912 118.355 152.799C119.029 152.696 119.576 152.132 119.571 151.415C119.561 150.262 119.17 149.035 118.946 147.901L118.282 144.534L118.272 144.538Z" fill="#274B66"/>
<path d="M91.1243 128.021C90.465 128.679 90.1867 129.882 89.9474 130.765C89.7081 131.654 89.5176 132.562 89.3418 133.465C88.956 135.443 88.707 137.446 88.4384 139.443C88.1747 141.451 87.9208 143.458 87.6717 145.471C87.4178 147.518 87.0955 149.564 86.9148 151.616C86.778 153.182 89.4346 153.57 89.6739 151.989C89.9816 149.947 90.1574 147.881 90.3918 145.829C90.6213 143.822 90.8508 141.814 91.0608 139.802C91.261 137.907 91.4466 136.002 91.7005 134.113C91.8226 133.195 91.9838 132.282 92.1596 131.369C92.3452 130.431 92.7016 129.332 92.5356 128.385C92.4233 127.737 91.5443 127.594 91.1243 128.012V128.021Z" fill="#274B66"/>
<path d="M94.9716 53.055C96.6906 48.2497 97.4524 42.6688 97.1496 36.8671C96.8419 30.8788 95.4453 25.2194 93.1159 20.5122C90.6253 15.5106 86.8797 10.8672 82.5725 7.43625C77.8307 3.66168 72.5761 1.43817 67.3753 1.02096C65.4366 0.863888 63.4881 0.957148 61.5835 1.29583C59.7473 0.647918 57.8379 0.235612 55.9041 0.0834512C50.376 -0.363214 44.5159 1.22711 38.9585 4.68263C33.9677 7.78474 29.4407 12.2759 26.2128 17.3365C21.051 26.0195 18.8046 38.0402 20.6017 46.9489C19.5225 47.4938 18.6874 48.4018 18.1942 49.6289C17.0563 52.466 17.8719 56.9572 21.6468 59.7157C22.3256 60.0348 23.0727 60.2949 23.8199 60.5354C23.732 61.9687 24.445 63.4854 26.0467 64.2462C27.1113 64.6339 28.1222 64.472 28.9426 64.0007C28.9475 64.0253 28.9524 64.0498 28.9621 64.0744C29.0891 64.5848 29.2259 65.0904 29.3821 65.5911C29.6849 66.5777 30.0365 67.5544 30.4418 68.5018C30.8423 69.4393 31.2964 70.3571 31.8043 71.2456C32.3073 72.134 32.864 72.9979 33.4598 73.8274C34.0653 74.6667 34.7197 75.4717 35.4083 76.2423C36.1164 77.0277 36.8635 77.7787 37.6498 78.4904C38.4555 79.2217 39.3004 79.9138 40.1745 80.5666C41.0828 81.244 42.0205 81.8821 42.9825 82.476C43.9885 83.0994 45.0189 83.6786 46.0737 84.2185C47.1774 84.783 48.3006 85.3082 49.4433 85.7892C50.6397 86.2947 51.8557 86.761 53.0863 87.1881C53.35 87.2813 53.6186 87.3402 53.8726 87.4482C54.1314 87.5562 54.4244 87.6102 54.7076 87.6495C55.069 87.6985 55.3767 87.6396 55.7283 87.5611C56.0896 87.4826 56.4608 87.4335 56.827 87.3648C57.4717 87.247 58.1114 87.1194 58.7511 86.9819C59.9818 86.712 61.2075 86.4076 62.4186 86.0542C63.5711 85.7156 64.7138 85.3376 65.8419 84.9106C66.9162 84.5032 67.9759 84.0516 69.0161 83.5558C70.0123 83.0797 70.989 82.5594 71.9364 81.9901C72.8545 81.4403 73.7433 80.8513 74.6028 80.2132C75.4378 79.5948 76.2436 78.9272 77.0103 78.2253C77.7623 77.5332 78.4802 76.797 79.1541 76.0214C79.8232 75.2508 80.4531 74.4458 81.0343 73.6065C81.6203 72.7623 82.1574 71.8837 82.6458 70.9805C83.0218 70.2884 83.3539 69.5767 83.6713 68.8601C83.7104 68.8748 83.7446 68.8895 83.7836 68.9043C84.1987 69.0515 84.6675 69.1399 85.1901 69.1546C85.2145 69.1546 85.234 69.1448 85.2535 69.1399C85.3952 69.3313 85.5417 69.5178 85.6686 69.719C86.2742 70.6467 86.7821 71.6382 87.1923 72.6641C88.0078 74.7256 88.3301 76.9589 88.3155 79.1677C88.2862 83.9092 87.119 88.5624 87.1141 93.3089C87.1141 93.9813 87.1385 94.6538 87.1874 95.3262C88.169 96.3324 89.2384 97.211 90.386 97.9866C89.3947 94.2022 89.927 90.2215 90.386 86.334C90.9525 81.5189 91.3969 76.5761 89.4924 71.9818C88.9796 70.7449 88.3155 69.5816 87.5439 68.4919C87.4804 68.4036 87.412 68.3152 87.3485 68.222C87.6757 67.952 87.9394 67.6477 88.1299 67.309C88.291 67.0243 88.4034 66.7151 88.4669 66.4059C88.501 66.2635 88.5206 66.1163 88.5352 65.9739C89.6145 65.8218 90.7328 65.6696 91.7388 65.38C95.9043 63.2694 97.4231 58.9647 96.7541 55.9804C96.4757 54.7533 95.8555 53.7618 94.9521 53.0599L94.9716 53.055ZM27.5069 62.4644C26.2079 62.3123 25.3777 60.2458 26.8427 59.1267C27.9903 58.9598 30.0805 62.0521 27.5069 62.4644ZM85.4489 63.9075C87.9248 64.7321 85.3708 67.4464 84.2622 67.098C82.9925 65.758 84.145 63.8486 85.4489 63.9075ZM89.9758 62.9405C89.341 63.2645 88.6622 63.4461 87.9492 63.5688C87.2216 62.4055 85.903 61.6153 84.2964 61.9196C82.2405 62.5184 81.2882 64.4032 81.5177 66.1015C81.5568 66.4059 81.6398 66.7004 81.757 66.9851C81.6447 67.2894 81.5324 67.5937 81.4005 67.8931C80.9757 68.8895 80.4727 69.8565 79.9013 70.7744C79.3202 71.7119 78.6756 72.6052 77.9723 73.4494C77.2496 74.3182 76.4731 75.1379 75.6527 75.9036C74.803 76.6939 73.9093 77.4351 72.9766 78.1272C72.0145 78.8389 71.0134 79.4966 69.9879 80.1052C68.9282 80.7286 67.8343 81.3029 66.7209 81.8183C65.5733 82.3533 64.4013 82.8294 63.2146 83.2613C61.9937 83.6982 60.7582 84.086 59.5081 84.4148C58.6925 84.6308 57.8868 84.8075 57.0712 85.0284C56.5975 85.156 56.1629 85.2198 55.7087 85.3032C55.0983 85.4112 54.5318 85.2787 53.9556 85.0775C52.9496 84.729 51.9583 84.3265 50.9816 83.9044C49.79 83.389 48.6229 82.8245 47.4801 82.2109C46.3667 81.6121 45.2728 80.9593 44.218 80.2623C43.1876 79.5849 42.1914 78.8536 41.2293 78.083C40.2966 77.332 39.3981 76.5319 38.5483 75.6877C37.723 74.868 36.9417 74.0041 36.2092 73.096C35.5011 72.2125 34.8467 71.2897 34.2509 70.3277C33.6747 69.3902 33.1521 68.4134 32.7077 67.4023C32.2682 66.4108 31.902 65.3898 31.6139 64.3394C31.3257 63.2988 31.1255 62.2337 31.0034 61.1588C30.9839 60.9919 30.9692 60.825 30.9546 60.6581V60.5992L30.9155 60.5747C30.9155 60.5403 30.9155 60.5109 30.9155 60.4765C30.9058 60.1575 30.8423 59.8384 30.7251 59.5292C30.5151 58.9647 30.1391 58.4346 29.5579 57.9929C29.4163 57.8849 29.2649 57.7818 29.094 57.6885C28.8059 57.5167 28.4787 57.3695 28.1124 57.237C27.5948 57.1682 27.1162 57.1781 26.6865 57.2566C26.5009 57.286 26.33 57.3351 26.1639 57.394C26.0711 57.4235 25.9832 57.4578 25.8905 57.4971C25.6707 57.5904 25.4607 57.7033 25.2751 57.8407C25.1286 57.9389 25.0017 58.0567 24.8796 58.1794C24.5084 58.0076 24.152 57.8162 23.8199 57.5707C20.8215 55.9706 20.128 53.1139 20.7531 51.1407C21.0754 50.1149 21.7298 49.359 22.5795 48.9417C22.7455 48.9074 22.892 48.8436 23.0288 48.7601C23.4976 48.6031 24.0103 48.5344 24.5622 48.5785C25.2898 48.6374 26.0614 48.8829 26.8671 49.2853C26.9795 51.3272 27.209 53.3495 27.5655 55.3619C27.8683 57.0652 30.5786 56.9277 30.2709 55.2C29.8802 53.0255 29.6409 50.8364 29.5384 48.6276C29.4896 47.5625 28.4738 47.2091 27.7022 47.484C27.629 47.4152 27.5557 47.3514 27.4873 47.2974C26.2128 46.7624 25.0114 46.4434 23.9078 46.355C23.7027 46.3403 23.5025 46.3305 23.3071 46.3305C22.4916 42.3792 22.4086 39.2378 23.0434 36.2241C23.6343 29.0382 26.0858 22.2057 30.1391 16.4628C34.3486 10.4942 40.0427 6.11589 46.5962 3.79912C50.3956 2.41985 54.2437 2.5033 57.5058 2.76835C58.7853 2.87143 60.0941 3.01868 61.3589 3.16102C62.6237 3.30337 63.9373 3.45062 65.2266 3.5537C65.6661 3.58805 66.0909 3.61751 66.5011 3.64205C67.0041 3.64205 67.512 3.66659 68.0052 3.70586C72.5566 4.07399 76.9419 5.99808 81.0343 9.42906C84.4527 12.2956 87.6415 16.2223 90.2542 20.792C93.238 26.2355 94.6102 33.1956 94.3367 41.4761C94.4246 45.0985 93.7898 48.6129 92.4615 51.9408C92.2124 51.8966 91.9585 51.8573 91.6948 51.8377C91.2455 51.8034 90.7621 51.8083 90.2688 51.8377C90.1175 51.234 89.2482 50.5664 89.048 50.4192C88.7989 50.2376 88.5499 50.0903 88.3496 50.002C86.4695 49.1724 85.2731 47.2876 84.355 45.55C81.7961 40.7202 80.5801 35.8805 79.4569 29.637C78.3679 23.6095 76.1801 19.7122 72.9619 18.0482C72.5761 17.8323 72.1903 17.7095 71.8143 17.6899C71.6385 17.6801 71.4676 17.6899 71.3016 17.7292C71.0476 17.7832 70.7888 17.8912 70.5349 18.0482L70.4665 18.0924C70.2663 18.2102 69.9684 18.3869 69.9586 18.6323C69.9586 18.6569 69.9586 18.6814 69.9489 18.706C69.9342 18.8041 69.9196 18.9366 70.0026 19.0299L70.0416 19.0643C70.0758 19.0888 70.1051 19.0986 70.1344 19.1035C70.7986 19.3097 71.3748 19.7073 71.9511 20.1294C72.3515 20.419 72.7519 20.7184 73.0938 21.062C74.2267 22.2106 74.803 23.6831 75.3841 25.3519C76.3266 28.0565 76.8833 30.9181 77.4156 33.6864C77.5817 34.5454 77.7477 35.4044 77.9235 36.2535C78.5828 39.4243 79.5057 43.1007 81.381 46.301C82.846 48.8092 84.6333 51.3763 86.9921 52.3187C86.9823 52.3531 86.9676 52.3825 86.9628 52.4218C86.4646 54.822 85.82 57.1732 85.0387 59.4899C84.4185 61.3257 87.0702 61.895 87.6855 60.0838C88.3594 58.0812 88.9259 56.0491 89.3898 53.9876C89.8489 53.914 90.2884 53.8943 90.7035 53.9238C92.5055 54.071 93.7898 55.2736 94.0535 57.0701C94.3563 59.1169 93.2136 61.8214 90.0003 62.9209L89.9758 62.9405Z" fill="#274B66"/>
<path d="M56.9836 56.7023C57.3987 56.0985 57.5452 55.5243 57.3742 55.1267C57.2522 54.8322 56.9738 54.6358 56.6271 54.5966C56.2755 54.5671 56.1045 54.7733 55.958 54.95L55.3623 55.6617C55.1962 55.858 55.0302 56.0593 54.8739 56.2654C54.747 56.4323 54.6298 56.6041 54.5077 56.7759C54.4051 56.9232 54.3074 57.0655 54.1756 57.2422C53.9607 57.5318 53.7361 57.8312 53.6335 58.1944C53.487 58.7147 53.6335 59.2841 54.0437 59.7504C54.4881 60.2609 55.1718 60.5112 55.665 60.6339C55.9922 60.7125 56.3243 60.7517 56.6466 60.7861L56.7492 60.7959C56.8322 60.8057 56.9201 60.8155 57.0031 60.8204C57.4035 60.8548 57.721 60.8352 57.9993 60.7714C58.5023 60.6486 58.7514 60.4376 58.6879 60.1627C58.6439 60.0155 58.4828 59.8977 58.3021 59.7799L58.2581 59.7504C58.0775 59.6277 57.8821 59.5295 57.7356 59.4559C57.6184 59.397 57.4963 59.3479 57.3742 59.3037C57.2131 59.2399 57.0617 59.181 56.9299 59.1025C56.6906 58.9651 56.4903 58.7785 56.3585 58.5626C56.2559 58.4006 56.2071 58.2484 56.212 58.111C56.2218 57.8754 56.3829 57.6349 56.5294 57.4287C56.6857 57.2029 56.8371 56.9575 56.9787 56.6925L56.9836 56.7023Z" fill="#274B66"/>
<path d="M71.8292 48.9763C70.8379 48.8978 69.9296 49.2266 69.3973 49.8598L69.3631 49.904L68.9382 50.8513L68.948 50.9544C69.0896 52.53 70.0175 53.5411 71.4337 53.654C72.1418 53.7129 72.9134 53.5264 73.6019 53.1386L73.6801 53.0944L73.7338 53.0208C74.5884 51.8183 74.4516 50.92 74.1879 50.3801C73.807 49.6046 72.9036 49.0646 71.8292 48.9812V48.9763Z" fill="#274B66"/>
<path d="M46.6451 48.0141C46.2202 47.3024 45.3754 46.8312 44.384 46.7527C43.3097 46.6643 42.333 47.0521 41.8349 47.7589C41.4882 48.2497 41.2098 49.1136 41.8642 50.4389L41.9033 50.5174L41.9765 50.5763C42.5967 51.0721 43.3292 51.3764 44.0373 51.4304C45.4486 51.5433 46.5279 50.699 46.9185 49.1676L46.943 49.0694L46.6744 48.0632L46.6451 48.0141Z" fill="#274B66"/>
<path d="M46.9871 40.0284C46.6013 39.8811 46.2009 39.7683 45.7955 39.6848C44.2963 39.3805 42.7287 39.5228 41.3809 40.0873C40.7851 40.3376 40.6386 40.9365 40.6972 41.4126C40.7656 41.923 41.0977 42.4924 41.6055 42.5955C41.7814 42.6299 41.9669 42.6102 42.1574 42.5268C43.3245 42.0408 44.5014 41.9132 45.6588 42.1488C45.9811 42.2126 46.3132 42.3108 46.6404 42.4335C46.6892 42.4532 46.7332 42.463 46.782 42.4728C47.0017 42.517 47.2313 42.4728 47.4364 42.3452C47.705 42.1783 47.9052 41.8936 47.954 41.5942C48.0663 40.9365 47.661 40.2787 46.9822 40.0235L46.9871 40.0284Z" fill="#274B66"/>
<path d="M75.8828 42.7528C74.6424 41.9772 73.1188 41.5846 71.5903 41.6435C71.1752 41.6582 70.765 41.7073 70.3597 41.7907C69.6516 41.9331 69.1388 42.5221 69.1486 43.1847C69.1486 43.4841 69.3048 43.8032 69.5441 44.0093C69.7248 44.1664 69.9446 44.2449 70.1692 44.24C70.218 44.24 70.2669 44.2302 70.3157 44.2204C70.6576 44.1517 70.9994 44.1075 71.3315 44.0977C72.5133 44.0486 73.656 44.3676 74.7303 45.0352C74.9061 45.1432 75.0868 45.1972 75.2675 45.1873C75.7852 45.1677 76.21 44.6572 76.3565 44.1664C76.4933 43.705 76.4444 43.0915 75.8926 42.7479L75.8828 42.7528Z" fill="#274B66"/>
<path d="M53.0727 69.2327C52.4622 69.6696 52.2278 70.3175 51.9788 70.9654C51.9641 71.3188 51.9495 71.6722 51.9348 72.0207C52.7845 74.3718 55.1042 75.6088 57.5459 74.9707C58.8351 74.632 59.6458 73.7534 60.0657 72.4968C60.4662 71.2943 59.8069 70.4647 59.0549 69.6941C57.4629 68.0694 54.9332 67.8976 53.0727 69.2327ZM57.7998 72.0943C57.6533 72.8551 56.8866 72.9631 55.9881 72.8846C56.032 72.8895 55.8806 72.8993 55.7537 72.8502C55.1286 72.6244 54.191 72.6735 54.2789 71.6869C54.3668 70.7003 55.2165 70.5678 56.0223 70.5285C56.2225 70.5187 56.4422 70.5776 56.6327 70.6562C57.2822 70.9261 57.9414 71.3581 57.7998 72.0943Z" fill="#274B66"/>
<path d="M66.4721 15.8007C66.2817 15.6976 66.0326 15.6338 65.7787 15.6191C65.6713 15.6142 65.5687 15.6191 65.471 15.6289C63.9035 15.8056 62.6386 16.9395 61.7157 17.9015C60.0846 19.6097 58.6977 21.573 57.3596 23.4726C56.2999 24.9745 55.2109 26.5256 53.9998 27.9392C51.3139 31.0855 48.6622 32.8231 45.8933 33.2599C45.5124 33.3188 45.1266 33.3679 44.7457 33.417C43.9106 33.525 43.0463 33.633 42.221 33.8637C41.8645 33.9618 41.5178 34.0845 41.1759 34.2269C42.0159 33.2403 42.4017 31.2671 42.6996 29.7553C42.8216 29.1467 42.9242 28.6166 43.0365 28.2484C43.8276 25.6421 45.0241 23.1486 46.1814 20.7386C46.4452 20.1839 46.7137 19.6293 46.9774 19.0746C47.1679 18.6672 47.3535 18.1519 47.0751 17.769C46.9433 17.5874 46.7284 17.4794 46.4696 17.4647C46.3133 17.4549 46.1521 17.4843 46.0056 17.5481C45.6638 17.6954 45.4099 17.985 45.1852 18.2647C43.0023 20.9693 41.6154 24.2334 40.4385 27.3649C40.209 27.9834 39.9795 28.6019 39.7548 29.2203C38.8172 31.7776 37.8503 34.4281 36.522 36.848C34.6321 40.2986 32.2881 42.7381 29.5631 44.1026L29.3238 44.2204C28.8111 44.4707 28.2836 44.726 27.9076 45.1677C27.4632 45.6831 27.2972 46.5568 27.8099 47.0624C28.0102 47.2636 28.2739 47.3716 28.5962 47.3912C28.9722 47.4109 29.4264 47.3029 29.9391 47.0722C32.3613 45.9825 34.593 44.3235 36.395 42.2816C37.3082 41.241 38.1091 40.1072 38.7782 38.9144C39.0321 38.4579 39.2128 37.9278 39.3837 37.4124C39.6083 36.7449 39.8379 36.0577 40.2383 35.5276C40.3067 35.8025 40.4092 36.1215 40.6436 36.3375C40.9171 36.5878 41.2931 36.632 41.5519 36.6467C41.6545 36.6516 41.7571 36.6516 41.8596 36.6467C46.9384 36.5829 51.4263 34.5803 55.1963 30.683C56.9787 28.8424 58.5414 26.771 60.0553 24.7635C61.281 23.1388 62.5459 21.465 63.9132 19.9189C64.7434 18.9863 65.5296 18.1911 66.3159 17.4892C66.6333 17.2045 66.9751 16.8658 66.9361 16.429C66.9117 16.159 66.7554 15.9382 66.4819 15.7909L66.4721 15.8007Z" fill="#274B66"/>
<path d="M126.143 54.7534C126.134 54.7141 126.119 54.6748 126.104 54.6356C126.08 54.5669 126.06 54.4981 126.056 54.4392C125.816 51.5826 124.327 49.5456 121.626 48.3921C120.195 47.7785 118.642 47.4644 117.016 47.4546C115.888 47.4448 114.682 47.5871 113.437 47.8669C110.194 48.5982 107.982 50.645 106.854 53.9484C106.659 54.5178 106.668 55.0332 106.888 55.4406C107.103 55.848 107.518 56.1474 108.089 56.3044C108.397 56.3879 108.666 56.4321 108.915 56.4321C109.75 56.437 110.311 55.9658 110.687 54.9448C111.469 52.8195 112.841 51.5531 114.892 51.0721C115.463 50.9395 116.054 50.8757 116.704 50.8806C117.041 50.8806 117.397 50.9052 117.768 50.9445C118.926 51.0672 119.883 51.4255 120.689 52.0341C121.597 52.7164 122.168 53.8748 122.212 55.1362C122.256 56.4173 121.758 57.5806 120.801 58.4052C120.059 59.0482 119.243 59.6225 118.457 60.1821C117.925 60.56 117.368 60.9478 116.84 61.3601C115.346 62.5185 114.443 63.8045 114.076 65.2819C113.749 66.6072 113.749 67.9423 113.793 69.0663C113.832 70.0284 114.526 70.6075 115.659 70.6124H115.678C116.762 70.6124 117.422 70.0529 117.49 69.0663C117.514 68.708 117.519 68.33 117.5 67.9521C117.412 66.1851 118.096 64.7862 119.59 63.6769C119.995 63.3725 120.415 63.0731 120.816 62.7786C121.343 62.3958 121.885 62.0031 122.412 61.6055C123.921 60.4668 125.528 58.9893 125.968 56.6726C125.997 56.5253 126.007 56.3781 126.012 56.2357C126.026 56.005 126.036 55.7891 126.129 55.5927L126.143 55.5584V54.7681V54.7436V54.7534Z" fill="#274B66"/>
<path d="M115.571 73.1846C115.39 73.1846 115.205 73.2042 115.024 73.2435C113.891 73.4987 113.227 74.5442 113.442 75.732C113.593 76.5714 114.106 77.1211 115.058 77.4647L115.078 77.4745H115.874H115.898C115.923 77.4647 115.947 77.4549 115.971 77.4451C116.015 77.4254 116.059 77.4058 116.098 77.396C117.285 77.072 117.9 75.9725 117.583 74.716C117.358 73.8079 116.548 73.1944 115.571 73.1895V73.1846Z" fill="#274B66"/>
</g>
<defs>
<clipPath id="clip0_1_2174">
<rect width="137" height="153" fill="white"/>
</clipPath>
</defs>
</svg>
